<svg fill="none" height="22" viewBox="0 0 16 16" width="22" xmlns="http://www.w3.org/2000/svg"><path clip-rule="evenodd" d="m3.19555 1.375c-.75741 0-1.13257.05807-1.51548.19849-.37014.13574-.700207.34965-.939161.65603-.113264.14523-.215449.31457-.28176.54451-.062149.21551-.084149.4547-.084149.73149v2.11948h15.25v-2.11948c0-.27679-.022-.51598-.0841-.73149-.0664-.22994-.1685-.39929-.2818-.54451-.239-.30638-.569-.52029-.9392-.65603-.3829-.14042-.758-.19849-1.5155-.19849zm11.42945 5.5h-13.25v6.7188c0 1.2318 1.16881 2.0312 2.33929 2.0312h8.57141c1.1705 0 2.3393-.7994 2.3393-2.0312zm-8.125 3.3516c-.27614 0-.5.2238-.5.5 0 .2761.22386.5.5.5h3c.27614 0 .5-.2239.5-.5 0-.2762-.22386-.5-.5-.5z" fill="#34373d" fill-rule="evenodd"/></svg>