<svg height="22.4619" width="22.7949" xmlns="http://www.w3.org/2000/svg"><path d="m0 0h22.7949v22.4619h-22.7949z" opacity="0"/><path d="m10.2373 22.4512h1.9766c.5586 0 .9668-.333 1.0849-.8809l.5586-2.3633c.419-.1396.8272-.3008 1.1817-.4726l2.0732 1.2676c.4619.29.9883.247 1.375-.1397l1.3857-1.375c.3868-.3867.4405-.9453.129-1.4072l-1.2676-2.0518c.1826-.376.3437-.7627.4619-1.1494l2.3848-.5693c.5478-.1182.8701-.5264.8701-1.085v-1.9443c0-.54788-.3223-.95608-.8701-1.07425l-2.3633-.56933c-.1397-.44043-.3116-.83789-.4619-1.1709l1.2675-2.08398c.3008-.46192.2686-.98829-.1289-1.375l-1.4072-1.38575c-.3975-.36523-.8701-.42968-1.3428-.16113l-2.1054 1.29981c-.3438-.18262-.7412-.34375-1.1817-.4834l-.5586-2.395511c-.1181-.547851-.5263-.880859-1.0849-.880859h-1.9766c-.55859 0-.96679.333008-1.0957.880859l-.55859 2.374021c-.41895.13965-.82715.30078-1.19239.49414l-2.08398-1.28906c-.47266-.26855-.95605-.21484-1.35352.16113l-1.39648 1.38575c-.39746.38671-.44043.91308-.12891 1.375l1.25684 2.08398c-.13965.33301-.31152.73047-.45117 1.1709l-2.363283.56933c-.547851.11817-.870117.52637-.870117 1.07425v1.9443c0 .5586.322266.9668.870117 1.085l2.384763.5693c.11817.3867.2793.7734.45117 1.1494l-1.25683 2.0518c-.32227.4619-.25781 1.0205.1289 1.4072l1.375 1.375c.38672.3867.92383.4297 1.38575.1397l2.0625-1.2676c.36523.1718.76269.333 1.18164.4726l.55859 2.3633c.12891.5479.53711.8809 1.0957.8809zm.9883-7.4336c-2.084 0-3.79201-1.7188-3.79201-3.8028 0-2.0732 1.70801-3.78121 3.79201-3.78121s3.792 1.70801 3.792 3.78121c0 2.084-1.708 3.8028-3.792 3.8028z" fill-opacity=".85"/></svg>