<svg height="19.7979" width="21.8174" xmlns="http://www.w3.org/2000/svg"><path d="m0 0h21.8174v19.7979h-21.8174z" opacity="0"/><path d="m4.84473 19.7979h11.78417c2.1162 0 3.2441-1.0958 3.2441-3.2012v-10.28029h-18.27241v10.28029c0 2.1162 1.12793 3.2012 3.24414 3.2012zm2.35254-9.6036c-.45118 0-.7627-.31149-.7627-.78414v-.33301c0-.47266.31152-.77344.7627-.77344h7.08983c.4512 0 .7734.30078.7734.77344v.33301c0 .47265-.3222.78414-.7734.78414zm-5.3711-5.34957h17.82133c1.2138 0 1.8261-.71973 1.8261-1.92285v-.97754c0-1.203129-.6123-1.9228556-1.8261-1.9228556h-17.82133c-1.149412 0-1.82617.7197266-1.82617 1.9228556v.97754c0 1.20312.612305 1.92285 1.82617 1.92285z" fill-opacity=".85"/></svg>