<svg fill="none" height="22" viewBox="0 0 16 16" width="22" xmlns="http://www.w3.org/2000/svg"><path d="m11.0922 9.75v-.625c-.1156 0-.229.03207-.3274.09265zm2.9078 3.7362.2968.55c.2022-.1091.3282-.3203.3282-.55zm-12 0h-.625c0 .2297.12603.4409.3282.55zm2.90778-3.7362.32746-.53235c-.09848-.06058-.21184-.09265-.32746-.09265zm3.09221-2.375c-.34518 0-.625.27982-.625.625s.27982.625.625.625zm3.09221 3h.3335v-1.25h-.3335zm.3335 0c1.0647 0 1.9493.8864 1.9493 2h1.25c0-1.78-1.4205-3.25-3.1993-3.25zm1.9493 2v1.1112h1.25v-1.1112zm.3282.5611c-1.7027.9188-3.6428 1.4389-5.7032 1.4389v1.25c2.2736 0 4.4171-.5745 6.2968-1.5888zm-5.7032 1.4389c-2.06042 0-4.00055-.5201-5.7032-1.4389l-.5936 1.1001c1.87972 1.0143 4.02319 1.5888 6.2968 1.5888zm-5.375-.8888v-1.1112h-1.25v1.1112zm0-1.1112c0-1.1164.88253-2 1.9493-2v-1.25c-1.78061 0-3.1993 1.4669-3.1993 3.25zm1.9493-2h.33348v-1.25h-.33348zm.00603-.0926c.99816.6139 2.16902.9676 3.41967.9676v-1.25c-1.01164 0-1.95685-.28539-2.76476-.78235zm3.41967.9676c1.25065 0 2.4215-.3537 3.4197-.9676l-.6549-1.06475c-.80795.49696-1.75316.78235-2.7648.78235zm-.00001-2.625c2.25081 0 4.05361-1.85904 4.05361-4.125h-1.25c0 1.60003-1.26733 2.875-2.80361 2.875zm4.05361-4.125c0-2.26596-1.8028-4.125-4.05361-4.125v1.25c1.53628 0 2.80361 1.27497 2.80361 2.875zm-4.05361-4.125c-2.25081 0-4.05357 1.85904-4.05357 4.125h1.25c0-1.60003 1.26729-2.875 2.80357-2.875zm-4.05357 4.125c0 2.26596 1.80276 4.125 4.05357 4.125v-1.25c-1.53628 0-2.80357-1.27497-2.80357-2.875z" fill="#34373d"/></svg>