<svg width="18" height="16" viewBox="0 0 18 16" fill="none" xmlns="http://www.w3.org/2000/svg">
<path fill-rule="evenodd" clip-rule="evenodd" d="M15.8528 6.49455C16.8805 5.39064 18.2599 2.88841 16.3541 1.02199C15.686 0.367848 14.8563 0.0147691 13.9542 0.000765942C12.1769 -0.0269069 10.7312 1.25038 10.5722 1.39608L10.5718 1.39641C10.1829 1.32473 9.76626 1.28405 9.31843 1.28405C8.73855 1.28405 8.20533 1.3524 7.71265 1.4691L7.6294 1.39841L7.62653 1.39641C7.46756 1.25038 6.02181 -0.0269069 4.2445 0.000432534C3.34275 0.0144357 2.51277 0.367515 1.84426 1.02233C-0.05721 2.88441 1.31246 5.3793 2.33909 6.48722C1.62752 7.10803 -0.0335269 8.83841 0.630318 11.0236C1.60061 14.2196 4.63492 14.3276 4.83802 14.331H5.38452C6.31965 15.4606 7.91754 15.9687 9.09847 15.9687C10.1829 15.9687 11.7915 15.5376 12.7887 14.331H13.3359C13.5498 14.3276 16.5841 14.2196 17.5544 11.0236C18.2165 8.84275 16.564 7.11569 15.8528 6.49455ZM16.5183 10.7519C15.7701 13.2168 13.5737 13.3265 13.3361 13.3311H12.3992C12.114 13.3311 11.8825 13.5375 11.8638 13.7982C11.0855 14.6691 9.83894 14.9685 9.09866 14.9685C8.37453 14.9685 7.14373 14.6798 6.36003 13.8509C6.36013 13.8491 6.36034 13.8473 6.36061 13.8456L6.3613 13.8416C6.36193 13.8382 6.36254 13.8348 6.36254 13.8313C6.36254 13.5545 6.12176 13.3311 5.82429 13.3311H4.85902C4.61107 13.3265 2.41464 13.2168 1.66647 10.7519C1.04389 8.70277 3.20623 7.10375 3.29522 7.03907L3.56399 6.84502L3.66661 6.54496C3.72546 6.37125 5.16834 2.28467 9.31863 2.28467C13.4004 2.28467 14.4536 6.2989 14.4955 6.46627L14.5838 6.81702L14.8863 7.0364C14.9785 7.10375 17.1405 8.70277 16.5183 10.7519ZM4.2626 1.00067C3.71681 1.00901 3.14878 1.19838 2.62524 1.71083C1.24552 3.06213 2.37657 4.8532 2.93025 5.56469C3.40929 4.58147 4.5224 2.7814 6.56058 1.86053C6.10845 1.52846 5.22141 0.985667 4.2626 1.00067ZM13.9362 1.00103C14.4819 1.00903 15.0503 1.19841 15.5732 1.71086C16.9281 3.03715 15.8642 4.78621 15.3008 5.52304C14.8828 4.48915 13.8723 2.62539 11.7864 1.75553C12.2683 1.42579 13.0739 0.987693 13.9362 1.00103ZM9.56052 13.1661C9.61183 13.2154 9.69149 13.2524 9.81206 13.2524C10.1784 13.2524 10.1939 12.9237 10.1939 12.92L10.9112 12.95V12.953C10.8886 13.4218 10.4956 13.9192 9.81206 13.9192C9.5354 13.9192 9.28493 13.8289 9.09439 13.6682C8.90349 13.8289 8.65303 13.9192 8.37672 13.9192C7.69314 13.9192 7.30058 13.4218 7.27761 12.953V12.95L7.99492 12.92C7.99492 12.9237 8.01071 13.2524 8.37672 13.2524C8.49729 13.2524 8.57659 13.2154 8.62827 13.1661C8.73089 13.0684 8.72695 12.9237 8.72695 12.9237V12.1945C8.16429 11.9561 7.51049 11.273 7.51049 10.8305C7.51049 10.2867 8.10221 10.2867 8.10221 10.2867H9.08865H10.0758C10.0758 10.2867 10.6679 10.2867 10.6679 10.8305C10.6679 11.2706 10.022 11.9471 9.46148 12.1895V12.9237C9.46148 12.9237 9.45789 13.0684 9.56052 13.1661ZM12.3128 7.28552C11.9166 7.28552 11.5951 7.73362 11.5951 8.28608C11.5951 8.83787 11.9166 9.28597 12.3128 9.28597C12.7093 9.28597 13.0304 8.83787 13.0304 8.28608C13.0304 7.73362 12.7093 7.28552 12.3128 7.28552ZM5.13588 8.28608C5.13588 7.73362 5.4574 7.28552 5.85355 7.28552C6.25006 7.28552 6.57122 7.73362 6.57122 8.28608C6.57122 8.83787 6.25006 9.28597 5.85355 9.28597C5.4574 9.28597 5.13588 8.83787 5.13588 8.28608Z" fill="#54585F"/>
</svg>
