<svg height="19.7979" width="21.8174" xmlns="http://www.w3.org/2000/svg"><path d="m0 0h21.8174v19.7979h-21.8174z" opacity="0"/><path d="m4.84473 19.7979h11.78417c2.1162 0 3.2441-1.0958 3.2441-3.2012v-11.47268h-1.7294v11.55858c0 .9668-.5372 1.4932-1.4932 1.4932h-11.82716c-.96679 0-1.49316-.5264-1.49316-1.4932v-11.55858h-1.72949v11.47268c0 2.1162 1.12793 3.2012 3.24414 3.2012zm2.35254-9.5391h7.08983c.4512 0 .7734-.31153.7734-.78419v-.34375c0-.47266-.3222-.77344-.7734-.77344h-7.08983c-.45118 0-.7627.30078-.7627.77344v.34375c0 .47266.31152.78419.7627.78419zm-5.15625-4.32911h17.39158c1.3213 0 2.041-.82715 2.041-2.1377v-1.63281c0-1.310547-.7197-2.1376956-2.041-2.1376956h-17.39158c-1.25684 0-2.04102.8271486-2.04102 2.1376956v1.63281c0 1.31055.719727 2.1377 2.04102 2.1377zm.44043-1.62207c-.53711 0-.75196-.22559-.75196-.7627v-1.13867c0-.53711.21485-.7627.75196-.7627h16.52145c.5371 0 .7412.22559.7412.7627v1.13867c0 .53711-.2041.7627-.7412.7627z" fill-opacity=".85"/></svg>