<svg width="18" height="16" viewBox="0 0 18 16" fill="none" xmlns="http://www.w3.org/2000/svg">
<path fill-rule="evenodd" clip-rule="evenodd" d="M17.2188 9.89367C17.2353 10.0713 16.6214 10.276 16.6214 10.276L17.7917 10.9057C17.7917 10.9057 17.6263 11.0917 17.293 11.2607C17.7131 11.57 17.777 11.9133 17.777 12.2743C17.777 12.7187 17.5929 13.1043 16.9737 13.465C17.2815 13.7253 17.5847 14.6853 17.5847 14.982C17.5847 15.4893 16.0299 15.9777 15.6718 15.9777C15.3127 15.9777 12.4301 15.9813 10.4702 15.9813C9.59882 15.9813 8.76973 15.9857 8.00236 15.9813L1.9803 15.9663L0.60376 3.64433H6.90923L7.78782 0.358667H7.78962C7.84594 0.153 8.04469 0 8.28326 0C8.32954 0 8.37367 0.008 8.416 0.0183333L8.41708 0.0166667L8.48058 0.037C8.48165 0.0373333 8.48201 0.0373333 8.48273 0.038L11.9652 1.14367L11.6351 2.042L8.64453 1.092L7.96182 3.64433H9.57299L9.25477 6.67933C9.67236 6.65933 10.1007 6.64833 10.5395 6.64833C14.395 6.64833 17.5345 7.40533 17.5345 9.19233C17.5345 9.52567 17.3415 9.53767 17.1398 9.84C17.1664 9.85633 17.2163 9.86267 17.2188 9.89367ZM5.06865 14.7197C5.43206 15.0537 6.27334 14.982 6.27334 14.982H10.2756H15.2985C15.2985 14.982 15.7226 14.979 16.049 14.679C16.5172 14.2487 15.9421 13.64 15.3599 13.64C14.2137 13.64 6.97579 13.6313 5.64803 13.6313C5.05358 13.6313 4.70523 14.385 5.06865 14.7197ZM10.5715 12.9401L16.9325 10.9821H4.46977L10.5715 12.9401ZM1.73095 4.64429L2.83807 14.982H3.48993C3.48132 14.6853 3.86124 13.7566 4.16833 13.4963C3.54912 13.136 3.26032 12.8126 3.26032 12.368C3.26032 11.9866 3.37118 11.47 3.83612 11.1476C3.25745 10.9626 3.16131 10.5836 3.53262 10.482C3.94411 10.3683 3.99039 10.6303 4.2347 10.3383C3.75863 9.90062 3.48993 9.71595 3.48993 9.19229C3.48993 7.77695 5.4968 7.01029 8.24486 6.75162L8.49635 4.64429H1.73095ZM10.5392 7.61694C8.46163 7.61694 4.47012 8.04328 4.54546 9.20961C4.56842 9.56228 5.9708 9.98161 5.9708 9.98161H10.5618H15.119C15.119 9.98161 16.5042 9.52394 16.5139 9.20961C16.5508 8.04228 12.5511 7.61694 10.5392 7.61694ZM0.60376 3.64433C0.60376 3.67233 0.617751 3.79267 0.60376 3.64433V3.64433Z" fill="#54585F"/>
</svg>
