<svg width="17" height="17" viewBox="0 0 17 17" fill="none" xmlns="http://www.w3.org/2000/svg">
<path fill-rule="evenodd" clip-rule="evenodd" d="M12.1535 0L12.1273 5.036C12.1273 5.036 11.1156 4.80667 10.4136 5.16933C9.2946 5.749 9.30142 6.57167 9.5486 7.20933C9.98126 8.326 13.2337 7.787 13.2337 5.63367V1.326C13.2337 1.326 14.7961 2.06267 14.9027 3.441C14.9445 3.98112 14.683 4.41805 14.4715 4.77159C14.2624 5.12105 14.102 5.38903 14.3315 5.59467C14.3315 5.59467 15.6453 4.46933 15.6693 3.39267C15.7213 0.988 13.868 0 12.1542 0H12.1535ZM7.68521 15.982H6.35782L5.64031 15.2357C5.03347 15.7398 4.25083 16.023 3.43684 16.033C2.05456 16.033 1.00448 15.2653 1.00448 14.077C1.00448 13.1927 1.58638 12.6497 2.38748 12.23C2.47717 12.18 2.57224 12.1353 2.67233 12.0907C2.19734 11.6183 1.78585 11.151 1.78585 10.5343C1.78585 9.67565 2.5665 8.96765 3.65891 8.96765C4.68782 8.96765 5.53197 9.60132 5.53197 10.541C5.53197 11.3867 4.82989 11.869 4.02269 12.2717L5.55923 13.9227C5.82111 13.3984 5.9433 12.8233 5.91548 12.246V11.9873H6.85506V12.2757C6.90151 13.0829 6.69821 13.8857 6.26921 14.589L7.68521 15.982ZM3.21008 12.6747C3.13116 12.7093 3.05725 12.7443 2.98335 12.784C2.41329 13.0723 2.02296 13.426 2.02332 14.0023C2.02332 14.793 2.70675 15.0977 3.48776 15.0977C4.05636 15.1212 4.61099 14.9299 5.02538 14.5673L3.21008 12.6747ZM3.48582 11.7346L3.48546 11.7343C4.12367 11.4311 4.58218 11.1328 4.58218 10.586C4.59752 10.2724 4.42588 9.97648 4.13559 9.81598C3.8453 9.65547 3.48349 9.65646 3.19423 9.81855C2.90496 9.98064 2.73519 10.2775 2.75253 10.591C2.75253 10.9345 2.93182 11.2225 3.48546 11.7343L3.48474 11.7346H3.48582ZM13.0394 12.5106L10.4671 16.0223L9.15981 16.0536L12.0507 12.3926L14.7022 8.98596H15.9722L13.0394 12.5106ZM4.95869 3.1593H3.88243V3.66048L0.653442 3.66133V2.65933H8.18729V3.65933L4.95869 3.66019V3.1593ZM4.95869 3.66019V7.6593H3.88243V3.66048L4.95869 3.66019ZM8.18729 0.659332H0.653442V1.65933H8.18729V0.659332ZM14.0059 14.2127C14.0059 13.6704 14.2255 13.2704 14.6743 13.2704C15.1048 13.2704 15.3333 13.6481 15.3333 14.2217V14.2617C15.3333 14.8397 15.0854 15.2174 14.6696 15.2174C14.2441 15.2174 14.0059 14.8307 14.0059 14.2527V14.2127ZM14.6588 15.995C13.7142 15.995 13.1761 15.2474 13.1761 14.304V14.1647C13.1761 13.2457 13.7297 12.498 14.6692 12.498C15.6088 12.498 16.1627 13.2354 16.1627 14.1737V14.314C16.1627 15.2224 15.6192 15.995 14.6588 15.995ZM9.70425 10.704C9.70425 10.1643 9.92309 9.76599 10.3697 9.76599C10.7977 9.76599 11.0259 10.142 11.0259 10.7127V10.7523C11.0259 11.3277 10.7794 11.7037 10.3651 11.7037C9.94174 11.7037 9.70425 11.3187 9.70425 10.7437V10.7057V10.704ZM10.3537 12.4857C9.40909 12.4857 8.87096 11.738 8.87096 10.7947V10.6567C8.87096 9.73766 9.42451 8.98999 10.3641 8.98999C11.3037 8.98999 11.8576 9.72732 11.8576 10.6657V10.8047C11.8576 11.713 11.3141 12.4857 10.3537 12.4857Z" fill="#54585F"/>
</svg>
