<svg width="18" height="16" viewBox="0 0 18 16" fill="none" xmlns="http://www.w3.org/2000/svg">
<path fill-rule="evenodd" clip-rule="evenodd" d="M0.730591 7.975C0.730591 12.3795 4.57342 15.95 9.3138 15.95C14.0542 15.95 17.897 12.3795 17.897 7.975C17.897 3.57053 14.0542 0 9.3138 0C4.57342 0 0.730591 3.57053 0.730591 7.975ZM14.2468 8.43497L14.8861 8.27689L15.2708 8.8434L14.6189 8.98315L14.2468 8.43497ZM16.7126 8.53434L15.2708 8.8434L15.2824 8.86041L13.5053 11.3384L13.5065 10.4316L12.9613 11.1936L12.8435 11.1515L12.831 11.6652L10.7416 10.9376L11.3482 10.6341L10.728 10.4182V10.2385L10.3808 10.4124V7.87328L10.4608 7.91497L10.5487 7.76927H10.6125L10.6287 7.79874L10.6909 7.76927H10.7265V7.75235L11.1423 7.55532L10.7832 7.3679L12.8379 6.38908L12.8373 6.91832L13.175 6.75763L13.5052 7.2483L13.5066 6.24592L14.8861 8.27689L16.6345 7.84452L16.5499 8.252L16.7126 8.53434ZM16.86 8.79013C16.872 8.6928 16.8819 8.59487 16.8897 8.49638L16.7126 8.53434L16.86 8.79013ZM16.9249 8.90292L16.86 8.79013C16.6268 10.6743 15.5951 12.3326 14.0873 13.4657L13.5029 13.3281L13.5053 11.3384L13.183 11.7878L12.831 11.6652L12.7817 13.6787L11.3342 14.6349L11.3432 14.7102L8.21107 13.6498V12.2034L10.7416 10.9376L10.3808 10.812V10.4124L7.8652 11.6719L5.23642 10.3148L5.22276 7.60596L7.37747 6.30765L10.3808 7.87328V7.55958L10.7832 7.3679L7.79207 5.80699L7.619 3.68033L10.6309 2.22405L12.8415 3.51819L12.8379 6.38908L13.4166 6.1134L13.5066 6.24592L13.5101 3.75787L14.8666 3.15857C15.8904 4.17716 16.5934 5.47768 16.826 6.92114L16.6345 7.84452L16.9072 7.77708C16.8986 7.48705 16.8711 7.2014 16.826 6.92114L16.837 6.86816H16.9001C17.0138 7.54177 17.0221 8.22709 16.9249 8.90292ZM16.9249 8.90292L16.9249 8.90342H16.9252L16.9249 8.90292ZM13.5101 3.75787L13.5114 2.77051L12.842 3.06603L12.8415 3.51819L13.3624 3.82313L13.5101 3.75787ZM10.3624 1.63899L10.7377 1.45752V2.17238L10.6309 2.22405L10.3624 2.06691V1.63899ZM7.48473 3.0304L10.3624 1.63899V0.983478C12.1311 1.21043 13.7053 2.0031 14.8666 3.15857L15.2791 2.97635C13.9723 1.70236 12.2389 0.877996 10.3624 0.638062V0.983478C10.0196 0.939484 9.66944 0.916748 9.31357 0.916748C7.70423 0.916748 6.21178 1.38173 4.98334 2.175L5.26267 3.0304H4.79007L4.63439 3.26182L4.39707 2.59419C3.33612 3.43191 2.52609 4.5357 2.08647 5.79456L3.25753 5.30854L3.05492 5.60972L3.36051 6.00721L1.85453 6.63142C1.76431 7.06637 1.71707 7.51554 1.71707 7.97497C1.71707 9.32332 2.12399 10.5834 2.82994 11.6549L3.45176 11.5626L3.96498 12.1076L3.24057 12.2158C3.87422 12.9979 4.67881 13.6537 5.60278 14.1352L5.61026 13.8548L5.9901 14.2581H6.26949L6.26369 14.4413C7.19718 14.8219 8.22882 15.0332 9.31357 15.0332C9.56443 15.0332 9.81244 15.0219 10.0571 14.9998L7.94867 14.2581H8.21107V13.6498L7.57652 13.4349V13.7128H6.3983L7.94867 14.2581H6.26949L6.30891 13.0136L6.06676 13.0974L5.63766 12.8278L5.61026 13.8548L3.96498 12.1076L4.58785 12.0147L3.49385 11.5564L3.45176 11.5626L3.39885 11.5065L4.56679 10.4213L4.57012 11.1353L4.99404 10.7414L5.23921 10.8682L5.23642 10.3148L4.87962 10.1306L4.56679 10.4213L4.55344 7.55888L4.79007 7.86667L5.22276 7.60596L5.22106 7.26955L5.00393 7.41611L4.55003 6.82764L4.55344 7.55888L3.36051 6.00721L3.78498 5.83127L3.62747 5.62596L4.06683 4.97266L3.25753 5.30854L4.63439 3.26182L4.83738 3.8329L5.06339 3.4908H5.41302L5.26267 3.0304H7.48473ZM7.48473 3.0304H7.56611L7.619 3.68033L6.86809 4.04341V3.32855L7.48473 3.0304ZM7.79207 5.80699L7.02086 5.40454V5.60962L6.60023 5.90248L7.37747 6.30765L7.81152 6.04611L7.79207 5.80699ZM7.8652 11.6719L8.21107 11.8505V12.2034L7.57631 12.521V12.0733L7.32386 11.943L7.8652 11.6719ZM11.3432 14.7102L11.3604 14.8539C12.3953 14.5883 13.3586 14.1234 14.1877 13.4894L14.0873 13.4657C13.8994 13.6069 13.7042 13.7399 13.5022 13.8642L13.5029 13.3281L13.3625 13.295L12.7817 13.6787L12.7674 14.2632C12.3511 14.4609 11.9126 14.6241 11.4563 14.7485L11.3432 14.7102Z" fill="#54585F"/>
</svg>
