<svg width="13" height="16" viewBox="0 0 13 16" fill="none" xmlns="http://www.w3.org/2000/svg">
<path d="M2.5 0.5H10.5C11.6046 0.5 12.5 1.39543 12.5 2.5V11.5059C12.5 12.1622 12.2417 12.7931 11.7812 13.2607L10.3105 14.7539C9.84065 15.2311 9.19902 15.5 8.5293 15.5H2.5C1.39543 15.5 0.5 14.6046 0.5 13.5V2.5C0.5 1.39543 1.39543 0.5 2.5 0.5Z" fill="#FFF2F1" stroke="#994743"/>
<path d="M12.5 11.5V11.5C10.2909 11.5 8.5 13.2909 8.5 15.5V15.5" stroke="#994743"/>
<path d="M8.75 7.31738C9.08311 7.50987 9.08311 7.99013 8.75 8.18262L5.375 10.1318C5.04169 10.3242 4.625 10.0831 4.625 9.69824L4.625 5.80176C4.625 5.4169 5.04169 5.17584 5.375 5.36816L8.75 7.31738Z" stroke="#994743"/>
</svg>
