<svg width="16" height="16" viewBox="0 0 16 16" fill="none" xmlns="http://www.w3.org/2000/svg">
<path fill-rule="evenodd" clip-rule="evenodd" d="M6 1C6 0.447715 6.44772 0 7 0H9C9.55229 0 10 0.447715 10 1H13C14.1046 1 15 1.89543 15 3V14C15 15.1046 14.1046 16 13 16H3C1.89543 16 1 15.1046 1 14V3C1 1.89543 1.89543 1 3 1H6ZM6.5 2C6.22386 2 6 2.22386 6 2.5C6 2.77614 6.22386 3 6.5 3H9.5C9.77614 3 10 2.77614 10 2.5C10 2.22386 9.77614 2 9.5 2H6.5ZM8 9C9.10457 9 10 8.10457 10 7C10 5.89543 9.10457 5 8 5C6.89543 5 6 5.89543 6 7C6 8.10457 6.89543 9 8 9ZM6 10C4.89543 10 4 10.8954 4 12V13H12V12C12 10.8954 11.1046 10 10 10H6Z" fill="#34373D"/>
</svg>
