<svg height="22.9775" width="23.332" xmlns="http://www.w3.org/2000/svg"><path d="m0 0h23.332v22.9775h-23.332z" opacity="0"/><path d="m10.4092 22.9668h2.1699c.8271 0 1.4609-.5049 1.6543-1.2998l.4619-2.0088.3438-.1182 1.7509 1.0743c.6983.4404 1.5039.333 2.0948-.2579l1.5039-1.4931c.5908-.5908.6982-1.4072.2578-2.0947l-1.0957-1.7403.1289-.3222 2.0088-.4727c.7842-.1934 1.2998-.8379 1.2998-1.6543v-2.127c0-.81636-.5049-1.46089-1.2998-1.65425l-1.9873-.4834-.1397-.34375 1.0957-1.74023c.4405-.6875.333-1.49317-.2578-2.09473l-1.5039-1.5039c-.5801-.58008-1.3857-.6875-2.084-.25782l-1.751 1.07422-.3652-.13965-.4619-2.00879c-.1934-.794917-.8272-1.2998-1.6543-1.2998h-2.1699c-.82717 0-1.46096.504883-1.65432 1.2998l-.47265 2.00879-.36524.13965-1.74023-1.07422c-.69824-.42968-1.51465-.32226-2.09473.25782l-1.49316 1.5039c-.59082.60156-.70899 1.40723-.25782 2.09473l1.08497 1.74023-.12891.34375-1.98731.4834c-.794917.19336-1.2998.83789-1.2998 1.65425v2.127c0 .8164.515625 1.4609 1.2998 1.6543l2.00879.4727.11817.3222-1.08496 1.7403c-.45118.6875-.33301 1.5039.25781 2.0947l1.49316 1.4931c.59082.5909 1.40723.6983 2.10547.2579l1.74024-1.0743.34375.1182.47265 2.0088c.19336.7949.82715 1.2998 1.65432 1.2998zm.1719-1.6758c-.1827 0-.2793-.0752-.3116-.2471l-.6445-2.664c-.65527-.1611-1.26758-.419-1.72949-.709l-2.3418 1.4395c-.12891.0966-.26855.0751-.39746-.0538l-1.26758-1.2675c-.11816-.1182-.1289-.2471-.04297-.3975l1.43946-2.3203c-.24707-.4512-.52637-1.0635-.69825-1.7188l-2.66406-.6337c-.17187-.0323-.24707-.129-.24707-.3116v-1.7939c0-.1934.06445-.2793.24707-.3115l2.65332-.64457c.17188-.69825.49414-1.33203.6875-1.7295l-1.42871-2.32031c-.09668-.16113-.08594-.29004.03223-.41894l1.27832-1.2461c.1289-.1289.24707-.15039.4082-.05371l2.32031 1.40723c.46192-.25781 1.11719-.52637 1.76172-.70899l.63376-2.66406c.0323-.17187.1289-.24707.3116-.24707h1.8261c.1826 0 .2793.0752.3008.24707l.6553 2.68555c.666.17187 1.2461.44043 1.7295.69824l2.331-1.41797c.1719-.09668.2793-.07519.419.05371l1.2676 1.2461c.1289.1289.1289.25781.0322.41894l-1.4287 2.32031c.2041.39747.5156 1.03125.6875 1.7295l2.664.64457c.1719.0322.2471.1181.2471.3115v1.7939c0 .1826-.0859.2793-.2471.3116l-2.6748.6337c-.1718.6553-.4404 1.2676-.6982 1.7188l1.4394 2.3203c.086.1504.086.2793-.0429.3975l-1.2569 1.2675c-.1396.1289-.2685.1504-.4082.0538l-2.3418-1.4395c-.4619.29-1.0634.5479-1.7187.709l-.6553 2.664c-.0215.1719-.1182.2471-.3008.2471zm.913-5.7041c2.2452 0 4.0928-1.8476 4.0928-4.1035 0-2.23438-1.8476-4.08203-4.0928-4.08203-2.24508 0-4.10348 1.84765-4.10348 4.08203 0 2.2451 1.84766 4.1035 4.10348 4.1035zm0-1.665c-1.332 0-2.42769-1.0957-2.42769-2.4385 0-1.3213 1.09569-2.41699 2.42769-2.41699 1.3106 0 2.4063 1.09569 2.4063 2.41699 0 1.332-1.0957 2.4385-2.4063 2.4385z" fill-opacity=".85"/></svg>