<svg width="64" height="64" viewBox="0 0 64 64" fill="none" xmlns="http://www.w3.org/2000/svg">
<circle cx="32" cy="32" r="32" fill="#0667C8"/>
<path fill-rule="evenodd" clip-rule="evenodd" d="M37.0826 42.7928C41.6099 42.7831 45.2685 39.1003 45.2685 34.555V21.5975H43.7047V34.5453C43.7143 35.9894 43.251 37.3849 42.4015 38.5382C40.2199 41.4844 36.0691 42.095 33.1345 39.9047C34.4087 38.4122 35.1134 36.5127 35.1037 34.5453V23.9525C35.0748 22.2662 33.7137 20.8997 32.0341 20.8706C30.3062 20.8416 28.8775 22.2177 28.8485 23.9525V34.5453C28.8582 36.5127 29.5725 38.4219 30.866 39.9047C29.727 40.7479 28.3466 41.2131 26.9276 41.2131C23.2498 41.2228 20.2573 38.2378 20.2476 34.5453V21.5975H18.6838V34.5647C18.6838 39.11 22.4003 42.8025 26.9276 42.8025C28.781 42.8025 30.5764 42.1725 32.0244 41.0193C33.4627 42.1725 35.2485 42.7928 37.0826 42.7928ZM31.9761 22.3825C32.8449 22.3825 33.5399 23.09 33.5399 23.9525V34.5453C33.5399 36.1154 32.9897 37.6369 31.9761 38.8387C30.9722 37.6369 30.4123 36.1154 30.4123 34.5453V23.9525C30.4123 23.0803 31.117 22.3825 31.9761 22.3825Z" fill="white"/>
</svg>
