<svg width="64" height="64" viewBox="0 0 64 64" fill="none" xmlns="http://www.w3.org/2000/svg">
<circle cx="32" cy="32" r="32" fill="#0667C8"/>
<path fill-rule="evenodd" clip-rule="evenodd" d="M37.0825 42.7927C41.6098 42.783 45.2683 39.1003 45.2683 34.555V21.5974H43.7045V34.5453C43.7142 35.9893 43.2508 37.3849 42.4014 38.5382C40.2198 41.4844 36.0689 42.0949 33.1344 39.9047C34.4086 38.4122 35.1133 36.5126 35.1036 34.5453V23.9525C35.0747 22.2661 33.7136 20.8996 32.0339 20.8706C30.306 20.8415 28.8774 22.2177 28.8484 23.9525V34.5453C28.8581 36.5126 29.5724 38.4219 30.8659 39.9047C29.7269 40.7478 28.3465 41.213 26.9275 41.213C23.2496 41.2227 20.2572 38.2377 20.2475 34.5453V21.5974H18.6837V34.5647C18.6837 39.11 22.4002 42.8024 26.9275 42.8024C28.7809 42.8024 30.5763 42.1725 32.0243 41.0192C33.4626 42.1725 35.2484 42.7927 37.0825 42.7927ZM31.976 22.3824C32.8448 22.3824 33.5398 23.0899 33.5398 23.9525V34.5453C33.5398 36.1153 32.9896 37.6369 31.976 38.8386C30.9721 37.6369 30.4122 36.1153 30.4122 34.5453V23.9525C30.4122 23.0802 31.1169 22.3824 31.976 22.3824Z" fill="white"/>
</svg>
