<svg width="18" height="16" viewBox="0 0 18 16" fill="none" xmlns="http://www.w3.org/2000/svg">
<path fill-rule="evenodd" clip-rule="evenodd" d="M17.3757 8C17.3757 3.58172 13.5209 0 8.76563 0C4.0104 0 0.155518 3.58172 0.155518 8C0.155518 12.4183 4.0104 16 8.76563 16C13.5209 16 17.3757 12.4183 17.3757 8ZM16.2995 8C16.2995 4.13401 12.9265 1 8.76566 1C4.60483 1 1.23181 4.13401 1.23181 8C1.23181 11.866 4.60483 15 8.76566 15C12.9265 15 16.2995 11.866 16.2995 8ZM8.40699 7.65637H9.48324V8.31267H8.40699V7.65637ZM8.40699 7.65637V2H9.48326V8.31267H9.48324V8.65637H4.46067V7.65637H8.40699Z" fill="#54585F"/>
</svg>
