<svg fill="none" height="265" viewBox="0 0 204 265" width="204" xmlns="http://www.w3.org/2000/svg" xmlns:xlink="http://www.w3.org/1999/xlink"><clipPath id="a"><path d="m0 0h408v530h-408z"/></clipPath><g clip-path="url(#a)" transform="scale(.5)"><g fill="#fff"><path clip-rule="evenodd" d="m76 156.571h-48c-2.209 0-4-1.798-4-4.015v-64.2424c0-2.2174 1.791-4.0151 4-4.0151h32c1.061 0 2.079.4226 2.829 1.1764l16 16.0601c.75.753 1.171 1.774 1.171 2.839v48.182c0 2.217-1.791 4.015-4 4.015zm-4-8.03v-42.504l-13.657-13.7082h-26.343v56.2122z" fill-rule="evenodd"/><path clip-rule="evenodd" d="m44.168 118.427c-2.302 0-4.168-1.798-4.168-4.015s1.866-4.015 4.168-4.015h15.664c2.302 0 4.168 1.798 4.168 4.015s-1.866 4.015-4.168 4.015z" fill-rule="evenodd"/><path clip-rule="evenodd" d="m44.168 132.48c-2.302 0-4.168-1.798-4.168-4.015s1.866-4.015 4.168-4.015h15.664c2.302 0 4.168 1.798 4.168 4.015s-1.866 4.015-4.168 4.015z" fill-rule="evenodd"/><path clip-rule="evenodd" d="m221.648 497.968-14.83 14.785c-2.524 2.516-6.818.722-6.818-2.849v-48.18c0-6.653 5.373-12.046 12-12.046h47.89c6.688 0 12.11 5.441 12.11 12.154v24.091c0 6.652-5.373 12.045-12 12.045zm-13.648 2.289 9.181-9.152c.749-.747 1.763-1.167 2.819-1.167h40c2.209 0 4-1.798 4-4.015v-24.091c0-2.279-1.84-4.123-4.11-4.123h-47.89c-2.209 0-4 1.796-4 4.015z" fill-rule="evenodd"/><path clip-rule="evenodd" d="m224 473.878c0 2.217-1.791 4.015-4 4.015s-4-1.798-4-4.015c0-2.218 1.791-4.016 4-4.016s4 1.798 4 4.016z" fill-rule="evenodd"/><path clip-rule="evenodd" d="m240 473.878c0 2.217-1.791 4.015-4 4.015s-4-1.798-4-4.015c0-2.218 1.791-4.016 4-4.016s4 1.798 4 4.016z" fill-rule="evenodd"/><path clip-rule="evenodd" d="m252 477.893c-2.209 0-4-1.798-4-4.015 0-2.218 1.791-4.016 4-4.016s4 1.798 4 4.016c0 2.217-1.791 4.015-4 4.015z" fill-rule="evenodd"/><path clip-rule="evenodd" d="m204 264.98c6.628 0 12 5.393 12 12.046 0 6.652-5.372 12.045-12 12.045-6.627 0-12-5.393-12-12.045 0-6.653 5.373-12.046 12-12.046zm0 32.121c11.046 0 20-8.988 20-20.075s-8.954-20.076-20-20.076-20 8.989-20 20.076 8.954 20.075 20 20.075z" fill-rule="evenodd"/><path clip-rule="evenodd" d="m224 321.192h-40v-12.045c0-1.937.599-2.838 1.789-3.435.442-.223.948-.383 1.463-.481l14.959 7.507c1.126.565 2.452.565 3.578 0l15.063-7.56c1.357.162 2.071.747 2.571 1.749.243.489.412 1.054.507 1.625.054.33.07.553.07.595zm7.82-13.959c-.216-1.311-.611-2.628-1.242-3.897-1.905-3.825-5.507-6.235-10.578-6.235-.621 0-1.233.146-1.789.425l-14.211 7.132-14.211-7.132c-.556-.279-1.168-.425-1.789-.425-.458 0-1.111.047-1.907.181-1.306.218-2.619.613-3.882 1.248-3.81 1.911-6.211 5.527-6.211 10.617v16.06c0 2.218 1.791 4.015 4 4.015h48c2.209 0 4-1.797 4-4.015v-16.06c0-.46-.047-1.115-.18-1.914z" fill-rule="evenodd"/><path clip-rule="evenodd" d="m204 185.681c6.628 0 12 5.393 12 12.045s-5.372 12.046-12 12.046c-6.627 0-12-5.394-12-12.046s5.373-12.045 12-12.045zm0 32.121c11.046 0 20-8.989 20-20.076 0-11.086-8.954-20.075-20-20.075s-20 8.989-20 20.075c0 11.087 8.954 20.076 20 20.076z" fill-rule="evenodd"/><path clip-rule="evenodd" d="m224 241.893h-40v-12.045c0-1.937.599-2.838 1.789-3.435.442-.223.948-.383 1.463-.481l14.959 7.507c1.126.565 2.452.565 3.578 0l15.063-7.56c1.357.162 2.071.746 2.571 1.749.243.489.412 1.053.507 1.625.054.33.07.552.07.595zm7.82-13.961c-.216-1.31-.611-2.628-1.242-3.895-1.905-3.825-5.507-6.235-10.578-6.235-.621 0-1.233.146-1.789.424l-14.211 7.133-14.211-7.133c-.556-.278-1.168-.424-1.789-.424-.458 0-1.111.047-1.907.181-1.306.218-2.619.613-3.882 1.246-3.81 1.914-6.211 5.528-6.211 10.619v16.06c0 2.218 1.791 4.015 4 4.015h48c2.209 0 4-1.797 4-4.015v-16.06c0-.46-.047-1.116-.18-1.916z" fill-rule="evenodd"/><path clip-rule="evenodd" d="m272 240.889c6.628 0 12 5.394 12 12.046s-5.372 12.045-12 12.045c-6.627 0-12-5.393-12-12.045s5.373-12.046 12-12.046zm0 32.121c11.046 0 20-8.989 20-20.075 0-11.087-8.954-20.076-20-20.076s-20 8.989-20 20.076c0 11.086 8.954 20.075 20 20.075z" fill-rule="evenodd"/><path clip-rule="evenodd" d="m292 297.101h-40v-12.045c0-1.936.6-2.838 1.789-3.435.442-.223.947-.383 1.464-.481l14.958 7.507c1.126.565 2.452.565 3.578 0l15.063-7.56c1.357.162 2.071.747 2.571 1.749.243.489.412 1.054.507 1.625.054.33.07.553.07.595zm7.82-13.959c-.216-1.311-.611-2.628-1.242-3.897-1.905-3.825-5.507-6.235-10.578-6.235-.621 0-1.233.146-1.789.425l-14.211 7.132-14.211-7.132c-.556-.279-1.168-.425-1.789-.425-.458 0-1.111.048-1.907.181-1.306.218-2.618.613-3.882 1.248-3.81 1.911-6.211 5.527-6.211 10.617v16.06c0 2.218 1.791 4.016 4 4.016h48c2.209 0 4-1.798 4-4.016v-16.06c0-.46-.047-1.115-.18-1.914z" fill-rule="evenodd"/><path clip-rule="evenodd" d="m136 241.893c6.627 0 12 5.393 12 12.045 0 6.653-5.373 12.046-12 12.046s-12-5.393-12-12.046c0-6.652 5.373-12.045 12-12.045zm0 32.121c11.046 0 20-8.988 20-20.076 0-11.086-8.954-20.075-20-20.075s-20 8.989-20 20.075c0 11.088 8.954 20.076 20 20.076z" fill-rule="evenodd"/><path clip-rule="evenodd" d="m156 298.105h-40v-12.045c0-1.937.599-2.838 1.789-3.435.442-.223.948-.383 1.463-.481l14.959 7.507c1.126.565 2.452.565 3.578 0l15.063-7.56c1.357.162 2.071.746 2.57 1.749.244.489.413 1.054.508 1.624.054.331.07.553.07.596zm7.821-13.96c-.218-1.311-.612-2.628-1.243-3.896-1.905-3.825-5.507-6.235-10.578-6.235-.621 0-1.233.146-1.789.425l-14.211 7.132-14.211-7.132c-.556-.279-1.168-.425-1.789-.425-.458 0-1.111.047-1.907.181-1.306.218-2.619.613-3.882 1.248-3.81 1.911-6.211 5.526-6.211 10.617v16.06c0 2.218 1.791 4.015 4 4.015h48c2.209 0 4-1.797 4-4.015v-16.06c0-.46-.046-1.116-.179-1.915z" fill-rule="evenodd"/><path clip-rule="evenodd" d="m156 437.631c-2.209 0-4-1.797-4-4.015 0-2.217 1.791-4.015 4-4.015 2.002 0 2.855-.514 5.172-2.839 3.683-3.698 6.163-5.191 10.828-5.191s7.146 1.493 10.829 5.191c2.317 2.325 3.169 2.839 5.171 2.839s2.855-.514 5.172-2.839c3.683-3.698 6.163-5.191 10.828-5.191s7.146 1.493 10.828 5.191c2.318 2.325 3.17 2.839 5.172 2.839s2.854-.514 5.172-2.839c3.682-3.698 6.164-5.191 10.828-5.191 4.665 0 7.146 1.493 10.828 5.191 2.318 2.325 3.17 2.839 5.172 2.839 2.209 0 4 1.798 4 4.015 0 2.218-1.791 4.015-4 4.015-4.664 0-7.146-1.493-10.828-5.191-2.318-2.325-3.17-2.839-5.172-2.839s-2.854.514-5.172 2.839c-3.682 3.698-6.163 5.191-10.828 5.191-4.664 0-7.146-1.493-10.828-5.191-2.318-2.325-3.17-2.839-5.172-2.839s-2.854.514-5.171 2.839c-3.683 3.698-6.164 5.191-10.829 5.191s-7.145-1.493-10.828-5.191c-2.317-2.325-3.17-2.839-5.172-2.839s-2.854.514-5.171 2.839c-3.683 3.698-6.164 5.191-10.829 5.191z" fill-rule="evenodd"/><path clip-rule="evenodd" d="m88 316.129h-56v-40.152h12c2.209 0 4-1.798 4-4.015 0-1.936.599-2.838 1.789-3.435.487-.245 1.049-.415 1.619-.51.328-.054.55-.07.592-.07h16c1.929 0 2.828.602 3.422 1.796.244.488.413 1.054.508 1.624.054.33.07.553.07.595 0 2.217 1.791 4.015 4 4.015h12zm-8.689-48.182c-.197-.606-.439-1.206-.733-1.796-1.905-3.824-5.507-6.234-10.578-6.234h-16c-.458 0-1.111.047-1.907.18-1.306.218-2.619.613-3.882 1.247-2.716 1.363-4.716 3.591-5.64 6.603h-12.571c-2.209 0-4 1.798-4 4.015v48.182c0 2.217 1.791 4.015 4 4.015h64c2.209 0 4-1.798 4-4.015v-48.182c0-2.217-1.791-4.015-4-4.015z" fill-rule="evenodd"/><path clip-rule="evenodd" d="m60 302.12c-5.522 0-10-4.495-10-10.038s4.478-10.038 10-10.038c5.523 0 10 4.495 10 10.038s-4.477 10.038-10 10.038zm0-28.106c-9.941 0-18 8.09-18 18.068 0 9.979 8.059 18.068 18 18.068s18-8.089 18-18.068c0-9.978-8.059-18.068-18-18.068z" fill-rule="evenodd"/><path clip-rule="evenodd" d="m276 394.469c-2.209 0-4 1.797-4 4.015 0 2.217 1.791 4.015 4 4.015s4-1.798 4-4.015c0-2.218-1.791-4.015-4-4.015z" fill-rule="evenodd"/><path clip-rule="evenodd" d="m292 405.51h-32v-56.211l32 .003zm4-64.238-39.999-.004c-2.21 0-4.001 1.798-4.001 4.015v64.242c0 2.218 1.791 4.016 4 4.016h40c2.209 0 4-1.798 4-4.016v-64.238c0-2.217-1.791-4.015-4-4.015z" fill-rule="evenodd"/><path clip-rule="evenodd" d="m185 475.291c0 23.727-23.173 23.592-24.003 23.592h-19.997s-4 0-4-3.976 4-3.976 4-3.976l19.997-.083c.063 0 16.003.594 16.003-15.557 0-16.153-15.857-15.647-16-15.659h-32s-9 .083-9 9.122c0 6.025 3 9.038 9 9.038l32.497.003c.003 0 2.503.018 2.503-2.501 0-2.52-2.5-2.604-2.5-2.604l-32.5.081s-4 0-4-4.017c0-4.018 4-4.018 4-4.018h31.997s11.003-.493 11.003 10.555c0 11.047-11 10.536-11 10.536h-31.719s-17.281-.024-17.281-17.073 17-17.049 17-17.049h31.997s24.003-.142 24.003 23.586z" fill-rule="evenodd"/><path clip-rule="evenodd" d="m127.885 124.45c-11.046 0-20-8.988-20-20.076 0-11.0876 8.954-20.0755 20-20.0755s20 8.9879 20 20.0755c0 11.088-8.954 20.076-20 20.076zm4-47.8917v-4.3052h4c2.209 0 4-1.7978 4-4.0152 0-2.2173-1.791-4.0151-4-4.0151h-16c-2.209 0-4 1.7978-4 4.0151 0 2.2174 1.791 4.0152 4 4.0152h4v4.3052c-13.568 1.9494-24.0004 13.6575-24.0004 27.8157 0 15.523 12.5364 28.106 28.0004 28.106s28-12.583 28-28.106c0-14.1582-10.432-25.8663-24-27.8157z" fill-rule="evenodd"/><path clip-rule="evenodd" d="m131.885 102.711 6.829 6.855c1.562 1.568 1.562 4.11 0 5.677-1.562 1.568-4.095 1.568-5.657 0l-8-8.03c-.751-.753-1.172-1.774-1.172-2.839v-11.0412c0-2.2174 1.791-4.0152 4-4.0152s4 1.7978 4 4.0152z" fill-rule="evenodd"/><path clip-rule="evenodd" d="m129.751 425.837 4.688-4.706c1.562-1.567 1.562-4.11 0-5.678s-4.094-1.568-5.657 0l-4.688 4.706-4.688-4.706c-1.562-1.568-4.095-1.568-5.657 0s-1.562 4.111 0 5.678l4.688 4.706-4.688 4.706c-1.562 1.568-1.562 4.11 0 5.678s4.095 1.568 5.657 0l4.688-4.705 4.688 4.705c1.563 1.568 4.095 1.568 5.657 0s1.562-4.11 0-5.678z" fill-rule="evenodd"/><path clip-rule="evenodd" d="m116 172.632h48v-16.061h-48zm-4 8.03c-2.209 0-4-1.798-4-4.015v-24.091c0-2.217 1.791-4.015 4-4.015h56c2.209 0 4 1.798 4 4.015v24.091c0 2.217-1.791 4.015-4 4.015z" fill-rule="evenodd"/><path clip-rule="evenodd" d="m154 168.617c2.209 0 4-1.798 4-4.016 0-2.217-1.791-4.015-4-4.015s-4 1.798-4 4.015c0 2.218 1.791 4.016 4 4.016z" fill-rule="evenodd"/><path clip-rule="evenodd" d="m116 208.768h48v-16.06h-48zm-4 8.03c-2.209 0-4-1.797-4-4.015v-24.091c0-2.217 1.791-4.015 4-4.015h56c2.209 0 4 1.798 4 4.015v24.091c0 2.218-1.791 4.015-4 4.015z" fill-rule="evenodd"/><path clip-rule="evenodd" d="m154 204.753c2.209 0 4-1.798 4-4.015 0-2.218-1.791-4.015-4-4.015s-4 1.797-4 4.015c0 2.217 1.791 4.015 4 4.015z" fill-rule="evenodd"/><path clip-rule="evenodd" d="m314 415.548c0-2.217-1.791-4.015-4-4.015s-4 1.798-4 4.015-1.791 4.015-4 4.015-4 1.798-4 4.015c0 2.218 1.791 4.016 4 4.016 6.628 0 12-5.393 12-12.046z" fill-rule="evenodd"/><path clip-rule="evenodd" d="m330 415.548c0-2.217-1.791-4.015-4-4.015s-4 1.798-4 4.015c0 11.088-8.954 20.076-20 20.076-2.209 0-4 1.798-4 4.015s1.791 4.015 4 4.015c15.464 0 28-12.583 28-28.106z" fill-rule="evenodd"/><path clip-rule="evenodd" d="m346 415.548c0-2.217-1.791-4.015-4-4.015s-4 1.798-4 4.015c0 19.958-16.117 36.136-36 36.136-2.209 0-4 1.798-4 4.016 0 2.217 1.791 4.015 4 4.015 24.301 0 44-19.774 44-44.167z" fill-rule="evenodd"/><path clip-rule="evenodd" d="m320 284.967h6v-16.061h-6zm-4 8.03h14c2.209 0 4-1.798 4-4.015v-24.091c0-2.217-1.791-4.015-4-4.015h-14c-2.209 0-4 1.798-4 4.015v24.091c0 2.217 1.791 4.015 4 4.015z" fill-rule="evenodd"/><path clip-rule="evenodd" d="m345 284.967h6v-40.152h-6zm-4 8.03h14c2.209 0 4-1.798 4-4.015v-48.182c0-2.217-1.791-4.015-4-4.015h-14c-2.209 0-4 1.798-4 4.015v48.182c0 2.217 1.791 4.015 4 4.015z" fill-rule="evenodd"/><path clip-rule="evenodd" d="m370 284.967h6v-33.125h-6zm10-41.156h-14c-2.209 0-4 1.798-4 4.016v41.155c0 2.217 1.791 4.015 4 4.015h14c2.209 0 4-1.798 4-4.015v-41.155c0-2.218-1.791-4.016-4-4.016z" fill-rule="evenodd"/><path clip-rule="evenodd" d="m380 301.027h-64c-2.209 0-4 1.798-4 4.015 0 2.218 1.791 4.015 4 4.015h64c2.209 0 4-1.797 4-4.015 0-2.217-1.791-4.015-4-4.015z" fill-rule="evenodd"/><path clip-rule="evenodd" d="m176 389.45h56v-40.152h-56zm60-48.182h-64c-2.209 0-4 1.798-4 4.015v48.182c0 2.217 1.791 4.015 4 4.015h64c2.209 0 4-1.798 4-4.015v-48.182c0-2.217-1.791-4.015-4-4.015z" fill-rule="evenodd"/><path clip-rule="evenodd" d="m220 401.495h-32c-2.209 0-4 1.798-4 4.015 0 2.218 1.791 4.015 4 4.015h32c2.209 0 4-1.797 4-4.015 0-2.217-1.791-4.015-4-4.015z" fill-rule="evenodd"/><path clip-rule="evenodd" d="m92 172.632h-64c-2.209 0-4 1.797-4 4.015v16.06c0 2.218 1.791 4.016 4 4.016s4-1.798 4-4.016v-12.045h56v40.151h-44-16c-2.209 0-4 1.798-4 4.016 0 2.217 1.791 4.015 4 4.015h9.528l-5.106 10.249c-.987 1.984-.187 4.396 1.789 5.388s4.379.187 5.367-1.796l6.894-13.841h28.056l6.894 13.841c.988 1.983 3.391 2.788 5.367 1.796s2.777-3.404 1.789-5.388l-5.106-10.249h8.528c2.209 0 4-1.798 4-4.015v-48.182c0-2.218-1.791-4.015-4-4.015z" fill-rule="evenodd"/><path clip-rule="evenodd" d="m184.063 37.5138c-.555.1064-.882.2403-1.294.4595-.717.3806-1.252.9134-1.63 1.6167-.219.4067-.352.7252-.457 1.2672-.124.6354-.22 1.6435-.22 3.4371v29.2804c0 1.7936.096 2.8017.22 3.4371.105.5421.238.8605.457 1.2672.378.7033.913 1.2361 1.63 1.6167.412.2192.739.3532 1.294.4595.647.1241 1.668.2204 3.477.2204h20.906c1.808 0 2.83-.0963 3.477-.2204.554-.1063.881-.2403 1.294-.4595.717-.3806 1.251-.9134 1.63-1.6167.219-.4067.351-.7251.457-1.2672.123-.6354.22-1.6435.22-3.4371v-29.2804c0-1.7936-.097-2.8017-.22-3.4371-.106-.542-.238-.8605-.457-1.2672-.379-.7033-.913-1.2361-1.63-1.6167-.413-.2192-.74-.3531-1.294-.4595-.647-.1241-1.669-.2204-3.477-.2204h-20.906c-1.809 0-2.83.0963-3.477.2204zm-4.974-6.4701c2.196-1.1665 4.31-1.5964 8.451-1.5964h20.906c4.14 0 6.254.4299 8.451 1.5964 2.08 1.1048 3.741 2.7516 4.858 4.8257 1.181 2.1928 1.615 4.3055 1.615 8.4249v7.7288l11.742-11.6233c3.211-3.1779 8.396-3.17 11.597.018 1.538 1.5319 2.406 3.6126 2.406 5.7876v25.4951c0 4.5458-3.703 8.1837-8.214 8.1837-2.165 0-4.247-.8521-5.789-2.3782l-11.742-11.6232v7.6919c0 4.1194-.434 6.2321-1.615 8.4249-1.117 2.0741-2.778 3.721-4.858 4.8257-2.197 1.1665-4.311 1.5965-8.451 1.5965h-20.906c-4.141 0-6.255-.43-8.451-1.5965-2.081-1.1047-3.741-2.7516-4.858-4.8257-1.181-2.1928-1.616-4.3055-1.616-8.4249v-29.2804c0-4.1194.435-6.2321 1.616-8.4249 1.117-2.0741 2.777-3.7209 4.858-4.8257zm62.083 14.9331c-.146-.145-.394-.1455-.54-.0008l-12.879 12.7483c-.13.1298-.13.3284.001.458l12.878 12.7475c.067.0662.163.1083.269.1083.23 0 .368-.1772.368-.3376v-25.4951c0-.0805-.032-.1632-.097-.2286z" fill-rule="evenodd"/><path clip-rule="evenodd" d="m144.418 355.296h-3.31v-6.73c0-9.287-7.414-16.825-16.55-16.825s-16.551 7.538-16.551 16.825v6.73h-3.31c-3.641 0-6.6201 3.029-6.6201 6.73v33.651c0 3.702 2.9791 6.73 6.6201 6.73h39.721c3.641 0 6.62-3.028 6.62-6.73v-33.651c0-3.701-2.979-6.73-6.62-6.73zm-29.791-6.73c0-5.586 4.436-10.095 9.931-10.095 5.494 0 9.93 4.509 9.93 10.095v6.73h-19.861zm-9.93 13.46v33.651h39.721v-33.651z" fill-rule="evenodd" stroke="#fff" stroke-width=".980769"/><path clip-rule="evenodd" d="m208.435 129.707v-17.315c0-2.449-1.986-4.435-4.435-4.435s-4.435 1.986-4.435 4.435v17.315c0 2.449 1.986 4.434 4.435 4.434s4.435-1.985 4.435-4.434zm-4.435-29.596c-6.783 0-12.281 5.498-12.281 12.281v17.315c0 6.782 5.498 12.281 12.281 12.281s12.281-5.499 12.281-12.281v-17.315c0-6.783-5.498-12.281-12.281-12.281z" fill-rule="evenodd"/><path d="m186.602 129.354c0-1.695-1.375-3.07-3.07-3.07-1.696 0-3.07 1.375-3.07 3.07v.071l.017.923c.435 11.816 9.193 21.453 20.451 22.953v6.555c0 1.695 1.374 3.07 3.07 3.07s3.07-1.375 3.07-3.07v-6.555c11.549-1.539 20.468-11.642 20.468-23.876v-.071c0-1.695-1.374-3.07-3.07-3.07-1.695 0-3.07 1.375-3.07 3.07v.071l-.02.862c-.44 9.429-8.052 16.935-17.378 16.935-9.609 0-17.398-7.968-17.398-17.797z"/><path clip-rule="evenodd" d="m183.532 126.774c-1.425 0-2.58 1.155-2.58 2.58v.066l.017.915c.429 11.581 9.012 21.012 20.026 22.48l.425.056v6.985c0 1.425 1.155 2.58 2.58 2.58s2.58-1.155 2.58-2.58v-6.985l.425-.056c11.301-1.506 20.043-11.397 20.043-23.39v-.071c0-1.425-1.155-2.58-2.58-2.58s-2.58 1.155-2.58 2.58v.082l-.02.874c-.451 9.679-8.269 17.403-17.868 17.403-9.89 0-17.888-8.199-17.888-18.288v-.071c0-1.425-1.155-2.58-2.58-2.58zm-3.561 2.58c0-1.966 1.594-3.56 3.561-3.56 1.966 0 3.56 1.594 3.56 3.56v.071c0 9.569 7.581 17.307 16.908 17.307 9.051 0 16.457-7.286 16.888-16.462l.02-.851v-.065c0-1.966 1.594-3.56 3.56-3.56 1.967 0 3.561 1.594 3.561 3.56v.071c0 12.324-8.878 22.541-20.468 24.301v6.13c0 1.966-1.595 3.56-3.561 3.56s-3.561-1.594-3.561-3.56v-6.13c-11.294-1.715-20.012-11.46-20.451-23.36v-.009l-.017-.932z" fill-rule="evenodd"/></g><path clip-rule="evenodd" d="m331.114 343.906c10.047-1.966 19.036 3.772 22.085 12.301h26.804c3.531 0 6.42 2.853 6.42 6.34 0 3.488-2.889 6.341-6.42 6.341v6.341c0 3.487-2.889 6.341-6.42 6.341s-6.42-2.854-6.42-6.341v-6.341h-13.964c-2.632 7.387-9.758 12.682-18.137 12.682-12.005 0-21.443-10.875-18.811-23.144 1.541-7.26 7.512-13.062 14.863-14.52zm-2.632 18.638c0 3.488 2.852 6.342 6.338 6.342 3.485 0 6.337-2.854 6.337-6.342s-2.852-6.342-6.337-6.342c-3.486 0-6.338 2.854-6.338 6.342z" fill-rule="evenodd" stroke="#fff" stroke-width="7.84615"/><path clip-rule="evenodd" d="m42.195 347.179c-1.9699-1.971-6.0161-3.352-8.8744-.491l-8.5803 8.586c-2.8557 2.858-1.4791 6.903.4907 8.874l35.3088 35.334c.0287.029.0561.056.0818.08l.3824.382 17.0699 7.813.0228.01c2.1893.964 4.823.776 6.6421-1.044 1.8182-1.82 2.0054-4.452 1.0427-6.641l-.005-.011-.0051-.012-3.1936 1.432c3.1936-1.432 3.1936-1.432 3.1936-1.432l-.3138-.699c-.1997-.444-.4852-1.08-.8285-1.843-.6867-1.527-1.6053-3.565-2.5324-5.613-.9263-2.046-1.864-4.108-2.5878-5.677-.361-.783-.6742-1.455-.9081-1.945-.1156-.242-.2211-.459-.3076-.63-.0414-.082-.0928-.181-.1466-.278-.0257-.046-.0694-.123-.1247-.211l-.001-.001c-.0111-.019-.1096-.18-.2744-.38-.0111-.013-.0256-.031-.0427-.051-.0223-.027-.0503-.059-.0835-.095-.0332-.037-.0721-.078-.1165-.123zm35.5321 35.58c-.0525-.063-.1112-.129-.1756-.195.0338.035.0634.067.0888.095.0329.036.0601.068.0803.092.0022.003.0044.005.0065.008zm.3755 17.313-13.0434-5.97-34.6112-34.636 7.0644-7.07 34.6741 34.699c.029.06.0613.128.097.202.2136.448.5113 1.086.8688 1.862.7133 1.546 1.6428 3.589 2.5675 5.632.8613 1.902 1.7157 3.798 2.3828 5.281z" fill="#fff" fill-rule="evenodd"/><path clip-rule="evenodd" d="m44.6711 352.046-14.364 14.375 4.2441 4.241 14.3641-14.375z" fill="#fff" fill-rule="evenodd"/><path clip-rule="evenodd" d="m73.1994 381.516-14.364 14.375 4.2442 4.241 14.364-14.375z" fill="#fff" fill-rule="evenodd"/><path clip-rule="evenodd" d="m274.615 135.444c-16.25 0-29.423-13.182-29.423-29.444 0-16.2617 13.173-29.4445 29.423-29.4445s29.423 13.1828 29.423 29.4445c0 16.262-13.173 29.444-29.423 29.444zm17.935-42.694c2.602 3.657 4.133 8.131 4.133 12.962 0 12.355-10.009 22.371-22.355 22.371-4.828 0-9.299-1.531-12.953-4.136zm-17.647-8.8333c4.828 0 9.298 1.5316 12.953 4.1358l-31.175 31.1975c-2.602-3.657-4.133-8.131-4.133-12.962 0-12.3555 10.009-22.3713 22.355-22.3713z" fill="#fff" fill-rule="evenodd"/><path clip-rule="evenodd" d="m294.013 153.111h-42.718c-3.357 0-6.072 2.756-6.072 6.125l-.031 39.597c0 2.114 1.068 3.982 2.685 5.084l24.777 16.568 24.746-16.568c1.617-1.102 2.685-2.97 2.685-5.084l.03-39.597c0-3.369-2.746-6.125-6.102-6.125zm-21.359 60.024-21.359-14.271v-39.628h42.718v39.597zm-11.849-28.482 5.716 5.759 17.934-18.028c1.199-1.205 3.149-1.205 4.349-.001 1.193 1.197 1.193 3.134 0 4.331l-22.253 22.334-10.064-10.101c-1.183-1.188-1.183-3.11 0-4.298 1.192-1.196 3.129-1.194 4.318.004z" fill="#fff" fill-rule="evenodd" stroke="#fff" stroke-width=".980769"/><path clip-rule="evenodd" d="m325.534 184.875c1.971 0 3.569 1.598 3.569 3.57 0 12.08 9.928 21.949 22.267 21.949 8.597 0 16.041-4.798 19.754-11.808.923-1.742 3.083-2.406 4.825-1.484 1.741.923 2.406 3.083 1.483 4.825-4.917 9.283-14.751 15.605-26.062 15.605-16.198 0-29.405-12.981-29.405-29.087 0-1.972 1.598-3.57 3.569-3.57z" fill="#fff" fill-rule="evenodd"/><path clip-rule="evenodd" d="m326.055 173.638c5.122-8.554 14.55-14.281 25.315-14.281 16.199 0 29.406 12.981 29.406 29.088 0 1.971-1.598 3.569-3.57 3.569-1.971 0-3.569-1.598-3.569-3.569 0-12.081-9.927-21.95-22.267-21.95-8.182 0-15.32 4.345-19.191 10.811-1.013 1.691-3.205 2.241-4.896 1.228s-2.241-3.204-1.228-4.896z" fill="#fff" fill-rule="evenodd"/><path clip-rule="evenodd" d="m335.931 194.875c-1.064 1.659-3.272 2.142-4.931 1.077l-5.03-3.226-3.257 4.953c-1.083 1.647-3.296 2.105-4.943 1.022s-2.104-3.296-1.021-4.943l7.134-10.851 10.971 7.037c1.659 1.064 2.141 3.272 1.077 4.931z" fill="#fff" fill-rule="evenodd"/><path clip-rule="evenodd" d="m366.287 181.322c1.092-1.641 3.308-2.085 4.949-.992l4.972 3.313 3.345-4.898c1.111-1.628 3.332-2.046 4.96-.935 1.628 1.112 2.046 3.333.934 4.961l-7.324 10.725-10.845-7.225c-1.64-1.093-2.084-3.309-.991-4.949z" fill="#fff" fill-rule="evenodd"/><path clip-rule="evenodd" d="m8 198.749c0 2.218-1.791 4.016-4 4.016s-4-1.798-4-4.016v-130.5045c0-2.2176 1.791-4.0155 4-4.0155 12.502 0 25.799-1.2459 39.788-3.6431 29.317-5.0255 60.698-14.8897 92.683-28.1761 16.808-6.982 32.71-14.4649 47.2-21.9459 5.068-2.61609 9.595-5.04448 13.519-7.22191 1.371-.75994 2.566-1.43354 3.581-2.01379.352-.20178.657-.377458.912-.525029 1.545-.906507 3.09-.906507 4.338-.172668.551.320239.856.495917 1.208.697697 1.015.58025 2.21 1.25385 3.581 2.01379 3.924 2.17743 8.452 4.60582 13.519 7.22191 14.49 7.481 30.392 14.9639 47.2 21.9459 31.986 13.2864 63.366 23.1506 92.684 28.1761 13.988 2.3972 27.285 3.6431 39.787 3.6431 2.209 0 4 1.7979 4 4.0155v52.2015c0 2.218-1.791 4.016-4 4.016s-4-1.798-4-4.016v-48.2261c-11.792-.2349-24.192-1.4998-37.134-3.7174-29.975-5.1379-61.902-15.1737-94.395-28.6719-17.025-7.0724-33.123-14.6477-47.8-22.225-5.141-2.6533-9.738-5.1188-13.731-7.3344-1.086-.60334-2.067-1.15347-2.94-1.64839-.873.49492-1.854 1.04505-2.94 1.64839-3.993 2.2156-8.59 4.6811-13.73 7.3344-14.677 7.5773-30.776 15.1526-47.801 22.225-32.493 13.4982-64.42 23.534-94.395 28.6719-12.941 2.2176-25.342 3.4825-37.134 3.7174z" fill="#fff" fill-rule="evenodd"/><path clip-rule="evenodd" d="m395.997 132.5h-72.019c-2.21 0-4.001-1.797-4.001-4.015 0-2.217 1.791-4.015 4.001-4.015.213 0 .445.022.707.07 3.032.548 5.519-2.404 4.474-5.313-.778-2.164-1.18-4.454-1.18-6.802 0-11.088 8.956-20.0761 20.005-20.0761 8.567 0 16.095 5.4556 18.882 13.4411.602 1.725 2.291 2.825 4.106 2.675.46-.039.755-.055 1.019-.055 6.628 0 12.003 5.393 12.003 12.045 0 2.217 1.791 4.015 4.001 4.015 2.209 0 4.001-1.798 4.001-4.015 0-10.642-8.252-19.35-18.686-20.033-4.555-9.6841-14.33-16.1034-25.326-16.1034-15.468 0-28.007 12.5835-28.007 28.1064 0 1.545.125 3.073.371 4.576-4.854 1.544-8.373 6.102-8.373 11.484 0 6.652 5.374 12.046 12.003 12.046h72.019c3.125 0 4.001.879 4.001 4.015v180.681c0 59.677-27.628 110.089-74.506 147.424-38.3 30.504-87.236 49.319-121.546 49.319-18.085 0-41.521-5.524-65.228-15.697-26.203-11.244-51.2201-27.422-71.9545-47.272-1.5994-1.531-4.1321-1.47-5.6575.134-1.5254 1.605-1.4654 4.146.134 5.677 41.535 39.762 100.786 65.188 142.706 65.188 36.209 0 86.866-19.476 126.52-51.06 48.683-38.773 77.534-91.414 77.534-153.713v-180.681c0-7.571-4.458-12.046-12.003-12.046z" fill="#fff" fill-rule="evenodd"/><path clip-rule="evenodd" d="m96 441.647h-5c-.335 0-.354-.012-1.171-.832-2.183-2.192-3.831-3.184-6.829-3.184s-4.645.992-6.828 3.184c-.817.82-.837.832-1.172.832s-.354-.012-1.171-.832c-2.183-2.192-3.831-3.184-6.829-3.184s-4.645.992-6.828 3.184c-.817.82-.837.832-1.172.832s-.354-.012-1.171-.832c-2.183-2.192-3.831-3.184-6.829-3.184-.65 0-2.333-.91-4.409-2.683-2.059-1.756-4.32-4.17-6.381-6.745-20.691-30.025-32.21-65.161-32.21-102.996v-94.206c0-.025-.007-.049-.007-.074 0-.026.007-.051.007-.076 0-12.294 6.149-17.952 20.033-18.068h32.967c1.061 0 2.079-.422 2.829-1.175l9.171-9.207v4.359c0 2.218 1.791 4.016 4 4.016s4-1.798 4-4.016v-14.053c0-.269-.031-.523-.077-.77-.007-.037-.017-.071-.026-.107-.05-.236-.12-.46-.208-.673-.002-.007-.005-.014-.008-.02-.296-.709-.783-1.289-1.381-1.707-.043-.029-.085-.059-.128-.087-.175-.113-.356-.212-.545-.297-.03-.013-.057-.03-.087-.044-.217-.09-.442-.156-.671-.208-.05-.011-.099-.019-.149-.028-.301-.058-.607-.087-.916-.074h-13.804c-2.209 0-4 1.798-4 4.015 0 2.218 1.791 4.016 4 4.016h4.343l-8 8.03h-31.343c-18.149.15-28 9.216-28 26.098 0 .025.007.05.008.076-.001.025-.008.049-.008.074v94.206c0 39.564 12.067 76.324 33.712 107.685.027.039.062.068.09.106.028.037.045.078.074.115 5.927 7.435 11.919 12.549 17.124 12.549.335 0 .355.012 1.172.831 2.183 2.192 3.83 3.184 6.828 3.184s4.646-.992 6.829-3.184c.817-.819.836-.831 1.171-.831s.355.012 1.172.831c2.183 2.192 3.83 3.184 6.828 3.184s4.646-.992 6.829-3.184c.817-.819.836-.831 1.171-.831s.355.012 1.172.831c2.183 2.192 3.83 3.184 6.828 3.184h5c2.209 0 4-1.798 4-4.015 0-2.218-1.791-4.015-4-4.015z" fill="#fff" fill-rule="evenodd"/></g></svg>