<svg width="16" height="16" viewBox="0 0 16 16" fill="none" xmlns="http://www.w3.org/2000/svg">
<path fill-rule="evenodd" clip-rule="evenodd" d="M15.4739 1.11972C15.9602 1.38155 16.1421 1.988 15.8803 2.47426L14.3092 5.39103C15.3488 6.35026 15.9999 7.72422 15.9999 9.25026V12.5001C15.9999 13.8807 14.8807 15 13.5 15H2.50027C1.11959 15 0.000327237 13.8807 0.000327237 12.5001L0.000193922 9.25026C0.000193922 7.72442 0.651144 6.35061 1.69049 5.3914L0.11972 2.47426C-0.142112 1.988 0.0398223 1.38155 0.526081 1.11972C1.01234 0.857888 1.61879 1.03982 1.88062 1.52608L3.39457 4.3377C3.97147 4.11969 4.59684 4.00039 5.25007 4.00039H10.7499C11.4031 4.00039 12.0283 4.11966 12.6052 4.33761L14.1194 1.52608C14.3812 1.03982 14.9877 0.857888 15.4739 1.11972ZM10.7499 6.00039H5.25007C3.45518 6.00039 2.00015 7.45543 2.00015 9.25031L2.00028 12.5C2.00028 12.7761 2.22413 13 2.50027 13H13.5C13.7761 13 14 12.7761 14 12.5L13.9999 9.25031C13.9999 7.45543 12.5448 6.00039 10.7499 6.00039ZM4.50008 8.50039C5.05232 8.50039 5.50006 8.94813 5.50006 9.50036C5.50006 10.0526 5.05232 10.5003 4.50008 10.5003C3.94785 10.5003 3.50011 10.0526 3.50011 9.50036C3.50011 8.94813 3.94785 8.50039 4.50008 8.50039ZM8 8.50039C8.55224 8.50039 8.99998 8.94813 8.99998 9.50036C8.99998 10.0526 8.55224 10.5003 8 10.5003C7.44776 10.5003 7.00002 10.0526 7.00002 9.50036C7.00002 8.94813 7.44776 8.50039 8 8.50039ZM11.4999 8.50039C12.0522 8.50039 12.4999 8.94813 12.4999 9.50036C12.4999 10.0526 12.0522 10.5003 11.4999 10.5003C10.9477 10.5003 10.4999 10.0526 10.4999 9.50036C10.4999 8.94813 10.9477 8.50039 11.4999 8.50039Z" fill="#34373D"/>
</svg>
