<svg width="14" height="16" viewBox="0 0 14 16" fill="none" xmlns="http://www.w3.org/2000/svg">
<path fill-rule="evenodd" clip-rule="evenodd" d="M9.53193 14.9893L9.4851 14.9882H9.53193V13.0359L9.64243 12.1666C9.79501 11.0235 10.399 9.9738 11.3372 9.22095C12.5187 8.23304 13.1678 6.80915 13.1094 5.3333C13.1094 2.39265 10.3732 0 7.01062 0C3.64803 0 0.911825 2.39265 0.911825 5.3333C0.853477 6.80915 1.50258 8.23304 2.68406 9.22095C3.62229 9.9738 4.22623 11.0235 4.37881 12.1666L4.48931 13.0369V14.9893C4.50024 15.4313 4.85341 15.8013 5.32448 15.8642C5.88216 15.948 6.44574 15.9934 7.01062 15.9999C7.5755 15.9934 8.13908 15.948 8.69676 15.8642C9.16783 15.8013 9.521 15.4313 9.53193 14.9893ZM10.6168 8.47764C9.50501 9.36951 8.77478 10.6278 8.57996 11.9999H5.44039C5.24361 10.6243 4.51367 9.36811 3.38711 8.46413C2.45917 7.68794 1.9403 6.54975 1.98767 5.33331C1.98767 2.95899 4.22787 1 7.01021 1C9.79255 1 12.0327 2.95899 12.0335 5.37002C12.0801 6.54975 11.5613 7.68794 10.6168 8.47764ZM5.56515 13.0369V12.9999H8.45527V14.8873C7.96204 14.9575 7.47994 14.9944 6.99679 15C6.53388 14.9943 6.04759 14.9566 5.56488 14.8872L5.56515 13.0369ZM7.72798 7.66666C7.72798 7.71933 7.73456 7.77058 7.74698 7.81972L7.01055 8.45087L6.27393 7.81957C6.28634 7.77047 6.2929 7.71928 6.2929 7.66666C6.2929 7.29848 5.97166 7 5.57539 7C5.17912 7 4.85788 7.29848 4.85788 7.66666C4.85788 8.03485 5.17912 8.33333 5.57539 8.33333C5.63569 8.33333 5.69426 8.32642 5.75022 8.3134L6.6517 9.08599V11.3333H7.3692V9.08616L8.27083 8.31344C8.32674 8.32643 8.38525 8.33333 8.44549 8.33333C8.84175 8.33333 9.16299 8.03485 9.16299 7.66666C9.16299 7.29848 8.84175 7 8.44549 7C8.04922 7 7.72798 7.29848 7.72798 7.66666ZM5.57541 14.3333H7.01042V13.6666H5.57541V14.3333Z" fill="#54585F"/>
</svg>
