<svg width="16" height="16" viewBox="0 0 16 16" fill="none" xmlns="http://www.w3.org/2000/svg">
<path fill-rule="evenodd" clip-rule="evenodd" d="M9 2V3.07645C12.1151 3.55745 14.5 6.25021 14.5 9.5C14.5 13.0899 11.5899 16 8 16C4.41015 16 1.5 13.0899 1.5 9.5C1.5 6.25021 3.88491 3.55745 7 3.07645V2H6.5C5.94772 2 5.5 1.55228 5.5 1C5.5 0.447715 5.94772 0 6.5 0H9.5C10.0523 0 10.5 0.447715 10.5 1C10.5 1.55228 10.0523 2 9.5 2H9ZM8 14C10.4853 14 12.5 11.9853 12.5 9.5C12.5 7.01472 10.4853 5 8 5C5.51472 5 3.5 7.01472 3.5 9.5C3.5 11.9853 5.51472 14 8 14ZM8 13C6.067 13 4.5 11.433 4.5 9.5C4.5 7.567 6.067 6 8 6V9.5L10.4833 11.9664C9.84928 12.6048 8.9708 13 8 13ZM14.6213 2.70711L15.3284 3.41421C15.719 3.80474 15.719 4.4379 15.3284 4.82843C14.9379 5.21895 14.3047 5.21895 13.9142 4.82843L13.2071 4.12132C12.8166 3.7308 12.8166 3.09763 13.2071 2.70711C13.5976 2.31658 14.2308 2.31658 14.6213 2.70711Z" fill="#34373D"/>
</svg>
