<svg width="19" height="16" viewBox="0 0 19 16" fill="none" xmlns="http://www.w3.org/2000/svg">
<path fill-rule="evenodd" clip-rule="evenodd" d="M4.36864 0H11.9025V3.98962H18.0016V14.9896H16.9253V6H16.9248V5H11.9023V6H10.8263V1H5.44499L5.43578 7H1.85731V14.9897H0.781006V5.98967H4.37605L4.36864 0ZM2.93359 7.98962H4.00986V8.98962H2.93359V7.98962ZM9.75005 4H8.67379V5H9.75005V4ZM6.52121 4H7.59748V5H6.52121V4ZM15.8488 5.98962H14.7725V6.98962H15.8488V5.98962ZM14.7725 7.98962H15.8488V8.98962H14.7725V7.98962ZM7.59748 1.99996L6.52121 1.98962V2.99996H7.59748V1.99996ZM8.67379 2H9.75005V3H8.67379V2ZM14.7725 10.6666H13.6963V9.66668C13.6327 7.98619 12.1427 6.65717 10.333 6.66668H8.44949C6.63975 6.65717 5.14977 7.98619 5.08617 9.66668V10.6666H4.00987C3.6136 10.6666 3.29236 10.9651 3.29236 11.3333V14C3.29236 14.3681 3.6136 14.6666 4.00987 14.6666H4.01V16H6.16253V14.6666H12.6199V16H14.7724V14.6666H14.7725C15.1688 14.6666 15.49 14.3681 15.49 14V11.3333C15.49 10.9651 15.1688 10.6666 14.7725 10.6666ZM12.6202 10.6666C12.6202 9.14163 12.6202 7.66663 9.39137 7.66663C6.16258 7.66663 6.16258 9.14329 6.16258 10.6666H12.6202ZM5.24326 11.4064C5.68906 11.4064 6.05045 11.7422 6.05045 12.1564C6.05045 12.5706 5.68906 12.9064 5.24326 12.9064C4.79745 12.9064 4.43606 12.5706 4.43606 12.1564C4.43606 11.7422 4.79745 11.4064 5.24326 11.4064ZM14.3244 12.1564C14.3244 11.7422 13.963 11.4064 13.5172 11.4064H13.5169C13.0712 11.4066 12.71 11.7423 12.71 12.1564C12.71 12.5706 13.0714 12.9064 13.5172 12.9064C13.963 12.9064 14.3244 12.5706 14.3244 12.1564ZM12.082 13.3334H14.7726V13.9897H4.01V13.3334H6.70066V13.323C6.70066 13.1389 6.86128 12.9896 7.05941 12.9896H11.7232C11.9214 12.9896 12.082 13.1389 12.082 13.323V13.3334Z" fill="#54585F"/>
</svg>
