<svg width="16" height="16" viewBox="0 0 16 16" fill="none" xmlns="http://www.w3.org/2000/svg">
<path fill-rule="evenodd" clip-rule="evenodd" d="M8.00002 0C10.0398 0 11.723 1.40939 12 3.23077C12 3.23077 12.5779 6.2782 13 7.4973C13.3548 8.52194 14.1544 10.1796 14.1544 10.1796C14.6163 11.1807 14.102 12 12.9942 12H3.00588C1.89708 12 1.37423 11.1835 1.83585 10.1764C1.83585 10.1764 2.64751 8.44967 3.00002 7.4973C3.46275 6.24714 4.03097 3.23077 4.03097 3.23077C4.27701 1.40939 5.96021 0 8.00002 0ZM10 14C10 15.1046 9.10459 16 8.00002 16C6.89545 16 6.00002 15.1046 6.00002 14H10Z" fill="#34373D"/>
</svg>
