<svg width="200" height="200" viewBox="0 0 200 200" fill="none" xmlns="http://www.w3.org/2000/svg">
<g clip-path="url(#clip0_1029_15528)">
<path d="M100 200C155.229 200 200 155.228 200 99.9999C200 44.7715 155.229 0 100 0C44.7715 0 0 44.7715 0 99.9999C0 155.228 44.7715 200 100 200Z" fill="white"/>
<path d="M99.5556 127.111C122.629 127.111 141.333 108.407 141.333 85.3334C141.333 62.2601 122.629 43.5555 99.5556 43.5555C76.4824 43.5555 57.7778 62.2601 57.7778 85.3334C57.7778 108.407 76.4824 127.111 99.5556 127.111Z" fill="#DCE0E3"/>
<path d="M155.855 88.8705C155.855 83.4793 155.215 30.5845 101.723 26.8521C40.7009 22.5541 41.4914 94.1864 43.1478 116.807C43.3392 118.628 44.186 120.318 45.5298 121.559C46.8737 122.801 48.6228 123.511 50.4508 123.556H82.3357C76.6965 120.964 71.7056 117.146 67.7266 112.378C63.7476 107.61 60.8808 102.014 59.335 95.996C58.9305 94.3175 58.6163 92.6186 58.3938 90.9064L98.4852 89.5869C102.881 89.4427 107.111 87.8775 110.545 85.1253C113.978 82.373 116.43 78.5815 117.533 74.3178L118.663 76.8438C120.245 80.3916 122.801 83.4162 126.033 85.5655C129.266 87.7147 133.041 88.9001 136.92 88.9836H141.287C140.677 96.364 138.117 103.449 133.87 109.511C129.623 115.573 123.841 120.395 117.119 123.48H148.853C150.733 123.482 152.541 122.758 153.901 121.459C155.261 120.16 156.069 118.386 156.156 116.505C156.623 107.296 156.522 98.0672 155.855 88.8705V88.8705Z" fill="#676B71"/>
<path fill-rule="evenodd" clip-rule="evenodd" d="M122.89 132.444C137.329 134.598 151.178 140.166 163.495 148.77C165.304 149.995 176.71 158.729 178.667 163.667C169.983 178.23 159.702 185.194 148.021 193.106C144.806 195.284 141.485 197.533 138.062 200.033L117.316 205.858L88.4497 207.444L65.9323 200.849C51.612 194.776 39.6475 186.879 29.3333 174.328C29.5072 173.864 29.6144 173.55 29.6959 173.311C29.9083 172.69 29.9452 172.581 30.5322 171.667C30.5905 171.535 30.6635 171.33 30.7602 171.059C32.1941 167.032 38.8321 148.388 79.8119 138.485C86.5888 140.811 93.7232 141.588 100.78 140.767C107.837 139.946 114.669 137.545 120.86 133.71L122.89 132.444Z" fill="#CBCED1"/>
<path d="M199.5 99.9999C199.5 154.952 154.952 199.5 100 199.5C45.0477 199.5 0.5 154.952 0.5 99.9999C0.5 45.0476 45.0477 0.5 100 0.5C154.952 0.5 199.5 45.0476 199.5 99.9999Z" stroke="#DCE0E3" stroke-linecap="round" stroke-linejoin="round"/>
</g>
<defs>
<clipPath id="clip0_1029_15528">
<rect width="200" height="200" rx="100" fill="white"/>
</clipPath>
</defs>
</svg>
