<svg width="16" height="16" viewBox="0 0 16 16" fill="none" xmlns="http://www.w3.org/2000/svg">
<g id="Iconography / Copy">
<path id="Color" fill-rule="evenodd" clip-rule="evenodd" d="M14 10H6V2H14V10ZM4 1.003C4 0.449 4.456 0 4.995 0H15.005C15.554 0 16 0.456 16 1.003V10.998C16 11.551 15.544 12 15.005 12H4.995C4.446 12 4 11.544 4 10.998V1.003ZM0.995 4.0006H2V14.0006H12V14.9976C12 15.5516 11.544 15.9996 11.005 15.9996H0.995C0.446 15.9996 0 15.5446 0 14.9976V5.0026C0 4.4486 0.456 4.0006 0.995 4.0006Z" fill="black"/>
</g>
</svg>
