<svg fill="none" height="22" viewBox="0 0 16 16" width="22" xmlns="http://www.w3.org/2000/svg"><path d="m1.77783 6.0625v7.2617c0 .9255.79594 1.6758 1.77778 1.6758h8.88889c.9818 0 1.7778-.7503 1.7778-1.6758v-7.2617" stroke="#34373d" stroke-width="1.25"/><path clip-rule="evenodd" d="m3.19555 2h9.60885c.7227 0 1.0152.08013 1.3003.23061.2852.15048.509.37129.6616.65266.1525.28137.2337.56989.2337 1.28288v2.15026h-14v-2.15026c0-.71299.08122-1.00151.23374-1.28288s.37633-.50218.66152-.65266.57763-.23061 1.30029-.23061z" fill-rule="evenodd" stroke="#34373d" stroke-width="1.25"/><rect fill="#34373d" height="1" rx=".5" width="4" x="6" y="10"/></svg>