<svg width="13" height="15" viewBox="0 0 13 15" fill="none" xmlns="http://www.w3.org/2000/svg">
<path fill-rule="evenodd" clip-rule="evenodd" d="M7.01073 1.629C7.01073 1.629 8.27928 1 9.23788 1C10.0011 1.01952 10.7429 1.22448 11.3906 1.59124V7.45619C10.7182 7.16249 9.98401 7.00627 9.23788 7C8.33726 7.03205 7.45399 7.23989 6.64551 7.61C5.90537 8.01426 5.07241 8.24927 4.21531 8.29567C2.42154 8.29567 1.70403 7.30833 1.70403 7.30833V8.55367C1.70403 8.55367 2.42154 9.258 4.21531 9.258C5.18532 9.24013 6.13939 9.02545 7.01073 8.629C7.01073 8.629 8.27928 8 9.23788 8C10.119 8.0074 10.9834 8.22392 11.7492 8.629L12.4667 9.06933V8.29561H12.4669V1.20728L12.4667 1.20723V1.06933L11.7492 0.629C10.9834 0.22392 10.119 0.00740216 9.23788 0C8.33726 0.032054 7.45399 0.239893 6.64551 0.61C5.90537 1.01426 5.07241 1.24927 4.21531 1.29567C2.42154 1.29567 1.70403 0.308333 1.70403 0.308333V1.648C1.70403 1.648 2.42154 2.258 4.21531 2.258C5.18532 2.24012 6.13939 2.02544 7.01073 1.629ZM12.4667 8.29561H11.3906V7.45619C11.5122 7.50932 11.6319 7.56695 11.7492 7.629L12.4667 8.06933V8.29561ZM12.4667 1.20723V2.06933L11.7492 1.81767C11.6334 1.73646 11.5137 1.66093 11.3906 1.59124V0.96228L12.4667 1.20723ZM1.70395 0.29567H0.627686V14.2957H1.70395V0.29567Z" fill="#54585F"/>
</svg>
