<svg fill="none" height="22" viewBox="0 0 16 16" width="22" xmlns="http://www.w3.org/2000/svg"><g fill="#34373d"><path clip-rule="evenodd" d="m11.0922 9.75h.3335c1.4217 0 2.5743 1.1782 2.5743 2.625v1.1112c-1.7912.9665-3.833 1.5138-6 1.5138-2.16701 0-4.20881-.5473-6-1.5138v-1.1112c0-1.4497 1.15061-2.625 2.5743-2.625h.33348c.90304.5555 1.96108.875 3.09222.875s2.1892-.3195 3.0922-.875zm-3.09221-1.75c1.89355 0 3.42861-1.567 3.42861-3.5s-1.53506-3.5-3.42861-3.5-3.42857 1.567-3.42857 3.5 1.53502 3.5 3.42857 3.5z" fill-rule="evenodd"/><path d="m11.0922 9.75v-.5c-.0925 0-.1832.02566-.2619.07412zm2.9078 3.7362.2374.44c.1618-.0873.2626-.2563.2626-.44zm-12 0h-.5c0 .1837.10082.3527.26256.44zm2.90778-3.7362.26197-.42588c-.07879-.04846-.16947-.07412-.26197-.07412zm3.09221-2.25c-.27614 0-.5.22386-.5.5s.22386.5.5.5zm3.09221 2.75h.3335v-1h-.3335zm.3335 0c1.1361 0 2.0743.9447 2.0743 2.125h1c0-1.7133-1.3669-3.125-3.0743-3.125zm2.0743 2.125v1.1112h1v-1.1112zm.2626.6711c-1.7204.9284-3.6809 1.4539-5.7626 1.4539v1c2.2523 0 4.3754-.569 6.2374-1.5738zm-5.7626 1.4539c-2.08174 0-4.0422-.5255-5.76256-1.4539l-.47488.8801c1.86201 1.0048 3.98515 1.5738 6.23744 1.5738zm-5.5-1.0138v-1.1112h-1v1.1112zm0-1.1112c0-1.1831.93614-2.125 2.0743-2.125v-1c-1.70922 0-3.0743 1.4086-3.0743 3.125zm2.0743-2.125h.33348v-1h-.33348zm.07152-.0741c.97913.6023 2.12743.9491 3.35418.9491v-1c-1.03554 0-2.00331-.29222-2.83025-.80088zm3.35418.9491c1.22675 0 2.375-.3468 3.3542-.9491l-.5239-.85178c-.827.50866-1.79476.80088-2.8303.80088zm-.00001-2.625c2.17941 0 3.92861-1.80063 3.92861-4h-1c0 1.66662-1.32087 3-2.92861 3zm3.92861-4c0-2.19937-1.7492-4-3.92861-4v1c1.60774 0 2.92861 1.33338 2.92861 3zm-3.92861-4c-2.17936 0-3.92857 1.80063-3.92857 4h1c0-1.66662 1.32084-3 2.92857-3zm-3.92857 4c0 2.19937 1.74921 4 3.92857 4v-1c-1.60773 0-2.92857-1.33338-2.92857-3z"/></g></svg>