<svg width="19" height="16" viewBox="0 0 19 16" fill="none" xmlns="http://www.w3.org/2000/svg">
<path fill-rule="evenodd" clip-rule="evenodd" d="M18.0365 8C18.0365 3.58172 14.1816 0 9.4264 0C4.67116 0 0.816284 3.58172 0.816284 8C0.816284 12.4183 4.67116 16 9.4264 16C14.1816 16 18.0365 12.4183 18.0365 8ZM16.9713 8C16.9713 4.13401 13.5983 1 9.43744 1C5.27661 1 1.90359 4.13401 1.90359 8C1.90359 11.866 5.27661 15 9.43744 15C13.5983 15 16.9713 11.866 16.9713 8ZM12.3863 5C12.8322 5 13.1935 5.44767 13.1935 6C13.1935 6.55233 12.8322 7 12.3863 7C11.9403 7 11.5791 6.55233 11.5791 6C11.5791 5.44767 11.9403 5 12.3863 5ZM7.80845 6C7.80845 5.44733 7.4479 5 7.00305 5C6.55819 5 6.19764 5.44733 6.19764 6C6.19764 6.55267 6.5564 7 7.00305 7C7.4497 7 7.80845 6.55267 7.80845 6ZM13.2724 9.1566L13.2724 9.1566C14.2262 8.94469 14.8144 8.81398 14.8144 9.12528C14.8144 11.8867 12.4051 14.1253 9.43312 14.1253C6.4611 14.1253 4.0518 11.8867 4.0518 9.12528C4.0518 8.81398 4.64007 8.94469 5.5938 9.1566L5.59381 9.1566C6.57022 9.37355 7.92969 9.67561 9.43312 9.67561C10.9365 9.67561 12.296 9.37355 13.2724 9.1566ZM12.7585 10.1324C12.0067 10.3152 10.8546 10.5953 9.42641 10.5953C7.99824 10.5953 6.84608 10.3152 6.09437 10.1324C5.46952 9.9805 5.12136 9.89586 5.12136 10.0953C5.12136 12.0093 8.25113 12.0953 9.42641 12.0953C10.7459 12.0953 13.7315 12.0089 13.7315 10.0953C13.7315 9.89586 13.3833 9.9805 12.7585 10.1324Z" fill="black"/>
</svg>
